<svg width="26" height="26" viewBox="0 0 26 26" fill="none" xmlns="http://www.w3.org/2000/svg">
<path d="M24.7 18.8495V7.14946C24.7 6.07046 23.829 5.19946 22.75 5.19946H4.53701C3.45801 5.19946 2.58701 6.07046 2.58701 7.14946V18.8495C2.58701 19.9285 3.45801 20.7995 4.53701 20.7995H22.75C23.829 20.7995 24.7 19.9285 24.7 18.8495ZM22.997 7.00646C23.426 7.43546 23.192 7.87746 22.958 8.09846L17.68 12.9345L22.75 18.2125C22.906 18.3945 23.01 18.6805 22.828 18.8755C22.659 19.0835 22.269 19.0705 22.1 18.9405L16.419 14.0915L13.637 16.6265L10.868 14.0915L5.18701 18.9405C5.01801 19.0705 4.62801 19.0835 4.45901 18.8755C4.27701 18.6805 4.38101 18.3945 4.53701 18.2125L9.60701 12.9345L4.32901 8.09846C4.09501 7.87746 3.86101 7.43546 4.29001 7.00646C4.71901 6.57746 5.16101 6.78546 5.52501 7.09746L13.637 13.6495L21.762 7.09746C22.126 6.78546 22.568 6.57746 22.997 7.00646Z" fill="white"/>
</svg>
