<svg width="26" height="30" viewBox="0 0 26 30" fill="none" xmlns="http://www.w3.org/2000/svg">
<g clip-path="url(#clip0_83_6)">
<path d="M16.4362 20.8259V24.3583C16.4362 25.106 16.2161 25.4799 15.776 25.4799C15.5165 25.4799 15.2626 25.3571 15.0143 25.1116V20.0725C15.2626 19.827 15.5165 19.7042 15.776 19.7042C16.2161 19.7042 16.4362 20.0781 16.4362 20.8259ZM22.1576 20.8426V21.6127H20.6341V20.8426C20.6341 20.0837 20.888 19.7042 21.3958 19.7042C21.9036 19.7042 22.1576 20.0837 22.1576 20.8426ZM5.80599 17.1931H7.61719V15.6194H2.33594V17.1931H4.11328V26.7188H5.80599V17.1931ZM10.681 26.7188H12.1875V18.4487H10.681V24.7768C10.3424 25.2455 10.0208 25.4799 9.71615 25.4799C9.51302 25.4799 9.39453 25.3627 9.36068 25.1283C9.34939 25.0949 9.34375 24.8996 9.34375 24.5424V18.4487H7.83724V24.9944C7.83724 25.5413 7.88238 25.9487 7.97266 26.2165C8.10807 26.6295 8.43533 26.8359 8.95443 26.8359C9.49609 26.8359 10.0716 26.4955 10.681 25.8147V26.7188ZM17.9427 24.2411V20.9431C17.9427 20.1283 17.8919 19.5759 17.7904 19.2857C17.5985 18.6607 17.1979 18.3482 16.5885 18.3482C16.0243 18.3482 15.4996 18.6496 15.0143 19.2522V15.6194H13.5078V26.7188H15.0143V25.9152C15.5221 26.529 16.0469 26.8359 16.5885 26.8359C17.1979 26.8359 17.5985 26.529 17.7904 25.9152C17.8919 25.6138 17.9427 25.0558 17.9427 24.2411ZM23.6641 24.0737V23.856H22.1237C22.1237 24.4252 22.1124 24.7656 22.0898 24.8772C22.0109 25.279 21.7852 25.4799 21.4128 25.4799C20.8937 25.4799 20.6341 25.0949 20.6341 24.3248V22.8683H23.6641V21.144C23.6641 20.2623 23.5117 19.615 23.207 19.202C22.7669 18.6328 22.1688 18.3482 21.4128 18.3482C20.6454 18.3482 20.0417 18.6328 19.6016 19.202C19.2856 19.615 19.1276 20.2623 19.1276 21.144V24.0402C19.1276 24.9219 19.2912 25.5692 19.6185 25.9821C20.0586 26.5513 20.668 26.8359 21.4466 26.8359C22.2591 26.8359 22.8685 26.5402 23.2747 25.9487C23.4779 25.6473 23.5964 25.346 23.6302 25.0446C23.6528 24.9442 23.6641 24.6205 23.6641 24.0737ZM13.3724 8.78906V5.27344C13.3724 4.50335 13.1298 4.1183 12.6445 4.1183C12.1593 4.1183 11.9167 4.50335 11.9167 5.27344V8.78906C11.9167 9.57031 12.1593 9.96094 12.6445 9.96094C13.1298 9.96094 13.3724 9.57031 13.3724 8.78906ZM25.543 21.3616C25.543 23.9732 25.3963 25.9263 25.1029 27.221C24.9449 27.8795 24.6176 28.4319 24.1211 28.8783C23.6246 29.3248 23.049 29.5815 22.3945 29.6484C20.3181 29.8828 17.1866 30 13 30C8.81337 30 5.68186 29.8828 3.60547 29.6484C2.95095 29.5815 2.37261 29.3248 1.87044 28.8783C1.36827 28.4319 1.04384 27.8795 0.897135 27.221C0.603733 25.971 0.457031 24.0179 0.457031 21.3616C0.457031 18.75 0.603733 16.7969 0.897135 15.5022C1.05512 14.8438 1.38238 14.2913 1.87891 13.8449C2.37543 13.3984 2.9566 13.1362 3.6224 13.058C5.6875 12.8348 8.81337 12.7232 13 12.7232C17.1866 12.7232 20.3181 12.8348 22.3945 13.058C23.049 13.1362 23.6274 13.3984 24.1296 13.8449C24.6317 14.2913 24.9562 14.8438 25.1029 15.5022C25.3963 16.7522 25.543 18.7054 25.543 21.3616ZM8.64974 0H10.3763L8.32813 6.67969V11.2165H6.63542V6.67969C6.47743 5.85379 6.13325 4.67076 5.60286 3.13058C5.18533 1.98103 4.81858 0.9375 4.5026 0H6.29688L7.4987 4.4029L8.64974 0ZM14.9128 5.57478V8.50446C14.9128 9.40848 14.7548 10.067 14.4388 10.4799C14.01 11.0491 13.4119 11.3337 12.6445 11.3337C11.8885 11.3337 11.296 11.0491 10.8672 10.4799C10.5512 10.0558 10.3932 9.39732 10.3932 8.50446V5.57478C10.3932 4.68192 10.5512 4.02902 10.8672 3.61607C11.296 3.04688 11.8885 2.76228 12.6445 2.76228C13.4119 2.76228 14.01 3.04688 14.4388 3.61607C14.7548 4.02902 14.9128 4.68192 14.9128 5.57478ZM20.5833 2.86272V11.2165H19.043V10.2958C18.4449 10.9877 17.8637 11.3337 17.2995 11.3337C16.7804 11.3337 16.4475 11.1272 16.3008 10.7143C16.2105 10.4464 16.1654 10.0279 16.1654 9.4587V2.86272H17.7057V9.0067C17.7057 9.375 17.7114 9.57031 17.7227 9.59263C17.7565 9.83817 17.875 9.96094 18.0781 9.96094C18.3828 9.96094 18.7044 9.72098 19.043 9.24107V2.86272H20.5833Z" fill="white"/>
</g>
<defs>
<clipPath id="clip0_83_6">
<rect width="26" height="30" fill="white"/>
</clipPath>
</defs>
</svg>
