<svg width="70" height="71" viewBox="0 0 70 71" fill="none" xmlns="http://www.w3.org/2000/svg">
<path d="M0.831345 42.0318C1.35285 36.5219 5.97192 39.4512 5.37591 41.7528C5.42558 41.869 5.39081 42.0876 4.85441 42.0318C3.24518 40.86 1.50185 41.5435 0.831345 42.0318Z" fill="white"/>
<path d="M16.0825 41.9717C15.561 36.4618 10.942 39.3911 11.538 41.6927C11.4883 41.809 11.5231 42.0275 12.0595 41.9717C13.6687 40.8 15.412 41.4835 16.0825 41.9717Z" fill="white"/>
<path d="M69.2763 41.9717C68.7548 36.4618 64.1358 39.3911 64.7318 41.6927C64.6821 41.809 64.7169 42.0275 65.2533 41.9717C66.8625 40.8 68.6058 41.4835 69.2763 41.9717Z" fill="white"/>
<rect x="3.26291" y="2.59595" width="63.9513" height="28.3169" fill="#D9D9D9" stroke="white"/>
<rect x="0.443222" y="32.4987" width="68.4308" height="1.08581" fill="white"/>
<ellipse cx="34.8784" cy="6.60092" rx="6.10909" ry="5.71915" fill="white"/>
<path d="M26.2362 13.157H43.595C45.085 13.157 46.4509 14.3659 46.9476 14.9704C48.1396 16.5513 51.0004 20.299 52.9076 22.6424C53.5633 25.2091 51.4425 25.9902 50.3001 26.06L40.8385 23.8979C37.1134 21.8752 40.1679 18.7367 42.3285 19.1552L48.5121 20.4803L48.0651 19.7131L43.595 18.7367H26.2362L21.5427 19.7131V20.4803C22.387 20.2711 24.9399 19.7131 28.3968 19.1552C32.0324 20.5501 30.5076 22.8982 29.2908 23.8979C27.1799 24.2931 22.2728 25.2788 19.5311 26.06C16.7895 25.8368 16.7001 23.4561 16.9981 22.2937C18.2398 20.6431 21.0807 16.9512 22.5112 15.3889C23.9416 13.8266 25.5906 13.25 26.2362 13.157Z" fill="white"/>
<path d="M27.6518 18.8064V34.7782H42.4775V18.8064H27.6518Z" fill="white"/>
<path d="M26.2363 14.4822V18.8064C25.9134 18.8064 25.9233 18.8622 28.5458 19.0854C32.241 20.2013 30.6318 22.8982 29.3653 24.1071L27.4283 24.5953V25.2928L34.4314 27.5246V17.2023L26.2363 14.4822Z" fill="#FCBA31"/>
<path d="M43.446 14.6217L35.4744 17.3418V27.5246L42.4775 25.2928V24.0374C42.3782 24.2001 41.9411 24.4279 40.9875 24.0374C36.9942 21.0243 40.1183 19.3411 42.1795 18.8762L43.446 19.1552V14.6217Z" fill="#FCBA31"/>
<ellipse cx="8.50494" cy="44.9611" rx="4.76807" ry="4.46373" fill="white"/>
<ellipse cx="35.0274" cy="44.9611" rx="4.76807" ry="4.46373" fill="#F5F5F5"/>
<ellipse cx="61.5498" cy="44.9611" rx="4.76807" ry="4.46373" fill="white"/>
<ellipse cx="61.5498" cy="61.0026" rx="4.76807" ry="4.46373" fill="white"/>
<ellipse cx="34.8784" cy="61.0026" rx="4.76807" ry="4.46373" fill="white"/>
<ellipse cx="8.50494" cy="61.0026" rx="4.76807" ry="4.46373" fill="white"/>
<path d="M16.4766 54.865H0.384323C0.384323 51.1266 2.22202 50.006 3.14087 49.913C6.02158 49.82 12.1555 49.913 13.869 49.913C16.1786 49.913 16.3027 53.3073 16.4766 54.865Z" fill="white"/>
<path d="M42.9245 54.8366H26.8322C26.8322 51.0982 28.6699 49.9776 29.5888 49.8846C32.4695 49.7916 38.6034 49.8846 40.3169 49.8846C42.6265 49.8846 42.7506 53.2789 42.9245 54.8366Z" fill="white"/>
<path d="M66.9883 49.8846C69.2233 50.6802 69.2233 53.3306 69.5958 54.8366H54.6956C53.0317 50.8938 49.5551 42.4502 48.661 40.2184C48.5866 38.0562 51.1941 38.2655 51.79 39.2419L56.3346 49.8846H66.9883Z" fill="white"/>
<path d="M2.76838 65.9354C0.533348 66.731 0.53335 69.3813 0.160845 70.8873H15.0611C16.7249 66.9446 20.2016 58.501 21.0957 56.2691C21.1701 54.107 18.5625 54.3163 17.9666 55.2927L13.422 65.9354H2.76838Z" fill="white"/>
<path d="M69.2979 70.8781H53.2056C53.2056 67.1397 55.0433 66.0192 55.9622 65.9262C58.8429 65.8332 64.9768 65.9262 66.6904 65.9262C68.9999 65.9262 69.1241 69.3204 69.2979 70.8781Z" fill="white"/>
<path d="M42.9245 70.8781H26.8322C26.8322 67.1397 28.6699 66.0192 29.5888 65.9262C32.4695 65.8332 38.6034 65.9262 40.3169 65.9262C42.6265 65.9262 42.7506 69.3204 42.9245 70.8781Z" fill="white"/>
</svg>
