<svg width="91" height="78" viewBox="0 0 91 78" fill="none" xmlns="http://www.w3.org/2000/svg">
<path d="M25 5L45.5 0L66 5L45.5 10.5L25 5Z" fill="white"/>
<path d="M65.7273 16.9793C66.1841 17.5479 67.0064 17.6628 67.5638 17.2358C68.1213 16.8089 68.2029 16.0018 67.7461 15.4332L65.7273 16.9793ZM64.6833 13.6504L63.3786 13.6236L63.3883 14.068L63.6739 14.4234L64.6833 13.6504ZM63.2618 8.30624L63.3786 13.6236L65.988 13.6772L65.8713 8.35979L63.2618 8.30624ZM63.6739 14.4234L65.7273 16.9793L67.7461 15.4332L65.6927 12.8773L63.6739 14.4234Z" fill="white"/>
<path d="M32.5262 10.0497L45.421 13.0765L58.1403 10.0497V18.3733H32.5262V10.0497Z" fill="white"/>
<path d="M28.491 21.2487H60.684L67.0875 26.6968H23.2278L28.491 21.2487Z" fill="white"/>
<rect x="21.4735" y="29.5722" width="47.8947" height="2.72406" fill="white"/>
<rect x="24.4561" y="35.0204" width="41.9298" height="2.8754" fill="white"/>
<path d="M20.9473 37.8958V35.1717C17.9999 34.5663 17.6724 33.0025 17.8771 32.2963H6.649C5.77181 32.599 5.59637 33.1286 5.42093 33.4313L2.87707 37.8958H20.9473Z" fill="white" stroke="white" stroke-width="0.864198"/>
<path d="M69.3683 37.8958V35.1717C72.3157 34.5663 72.6431 33.0025 72.4385 32.2963H83.6665C84.5437 32.599 84.7192 33.1286 84.8946 33.4313L87.4385 37.8958H69.3683Z" fill="white" stroke="white" stroke-width="0.864198"/>
<path fill-rule="evenodd" clip-rule="evenodd" d="M63.0524 40.6198H27.7892V70.8872H63.0524V40.6198ZM40.5962 49.0947C41.5651 49.0947 42.3506 47.8073 42.3506 46.2193C42.3506 44.6312 41.5651 43.3439 40.5962 43.3439C39.6273 43.3439 38.8418 44.6312 38.8418 46.2193C38.8418 47.8073 39.6273 49.0947 40.5962 49.0947ZM50.2455 49.0947C51.2144 49.0947 51.9999 47.8073 51.9999 46.2193C51.9999 44.6312 51.2144 43.3439 50.2455 43.3439C49.2766 43.3439 48.4911 44.6312 48.4911 46.2193C48.4911 47.8073 49.2766 49.0947 50.2455 49.0947ZM40.0505 55.7634V70.8871H37.4579V54.4671V53.1708H38.7542H51.9121H53.2084V54.4671V70.8871H50.6158V55.7634H40.0505Z" fill="white"/>
<path fill-rule="evenodd" clip-rule="evenodd" d="M24.4559 40.6198H2.17523V70.8872H24.4559V40.6198ZM10.2454 47.5812C10.2454 49.1693 9.45991 50.4566 8.49099 50.4566C7.52207 50.4566 6.7366 49.1693 6.7366 47.5812C6.7366 45.9932 7.52207 44.7058 8.49099 44.7058C9.45991 44.7058 10.2454 45.9932 10.2454 47.5812ZM10.2454 55.9048C10.2454 57.4929 9.45991 58.7802 8.49099 58.7802C7.52207 58.7802 6.7366 57.4929 6.7366 55.9048C6.7366 54.3168 7.52207 53.0294 8.49099 53.0294C9.45991 53.0294 10.2454 54.3168 10.2454 55.9048ZM8.49099 66.9524C9.45991 66.9524 10.2454 65.665 10.2454 64.077C10.2454 62.4889 9.45991 61.2016 8.49099 61.2016C7.52207 61.2016 6.7366 62.4889 6.7366 64.077C6.7366 65.665 7.52207 66.9524 8.49099 66.9524ZM19.8945 55.7535C19.8945 57.3415 19.1091 58.6289 18.1402 58.6289C17.1712 58.6289 16.3858 57.3415 16.3858 55.7535C16.3858 54.1654 17.1712 52.8781 18.1402 52.8781C19.1091 52.8781 19.8945 54.1654 19.8945 55.7535ZM18.1402 66.9524C19.1091 66.9524 19.8945 65.665 19.8945 64.077C19.8945 62.4889 19.1091 61.2016 18.1402 61.2016C17.1712 61.2016 16.3858 62.4889 16.3858 64.077C16.3858 65.665 17.1712 66.9524 18.1402 66.9524ZM19.8945 47.5812C19.8945 49.1693 19.1091 50.4566 18.1402 50.4566C17.1712 50.4566 16.3858 49.1693 16.3858 47.5812C16.3858 45.9932 17.1712 44.7058 18.1402 44.7058C19.1091 44.7058 19.8945 45.9932 19.8945 47.5812Z" fill="white"/>
<path fill-rule="evenodd" clip-rule="evenodd" d="M88.2572 40.7156H65.9765V70.983H88.2572V40.7156ZM74.0466 47.6771C74.0466 49.2651 73.2611 50.5525 72.2922 50.5525C71.3233 50.5525 70.5378 49.2651 70.5378 47.6771C70.5378 46.089 71.3233 44.8017 72.2922 44.8017C73.2611 44.8017 74.0466 46.089 74.0466 47.6771ZM74.0466 56.0007C74.0466 57.5887 73.2611 58.8761 72.2922 58.8761C71.3233 58.8761 70.5378 57.5887 70.5378 56.0007C70.5378 54.4126 71.3233 53.1253 72.2922 53.1253C73.2611 53.1253 74.0466 54.4126 74.0466 56.0007ZM72.2922 67.0482C73.2611 67.0482 74.0466 65.7608 74.0466 64.1728C74.0466 62.5848 73.2611 61.2974 72.2922 61.2974C71.3233 61.2974 70.5378 62.5848 70.5378 64.1728C70.5378 65.7608 71.3233 67.0482 72.2922 67.0482ZM83.6957 55.8493C83.6957 57.4373 82.9103 58.7247 81.9414 58.7247C80.9724 58.7247 80.187 57.4373 80.187 55.8493C80.187 54.2612 80.9724 52.9739 81.9414 52.9739C82.9103 52.9739 83.6957 54.2612 83.6957 55.8493ZM81.9414 67.0482C82.9103 67.0482 83.6957 65.7608 83.6957 64.1728C83.6957 62.5848 82.9103 61.2974 81.9414 61.2974C80.9724 61.2974 80.187 62.5848 80.187 64.1728C80.187 65.7608 80.9724 67.0482 81.9414 67.0482ZM83.6957 47.6771C83.6957 49.2651 82.9103 50.5525 81.9414 50.5525C80.9724 50.5525 80.187 49.2651 80.187 47.6771C80.187 46.089 80.9724 44.8017 81.9414 44.8017C82.9103 44.8017 83.6957 46.089 83.6957 47.6771Z" fill="white"/>
<rect x="0.420898" y="73.7626" width="21.0526" height="2.8754" fill="white"/>
<rect x="69.3683" y="73.7626" width="21.0526" height="2.8754" fill="white"/>
<rect x="24.4561" y="73.7626" width="41.9298" height="4.23743" fill="white"/>
<rect x="40.278" y="55.972" width="10.2857" height="15.7792" fill="white"/>
</svg>
