<svg width="89" height="77" viewBox="0 0 89 77" fill="none" xmlns="http://www.w3.org/2000/svg">
<path d="M14.4889 17.5525L14.8812 16.6509L13.4099 15.3887C12.0366 9.16769 4.77788 12.9544 5.95497 15.3887C5.628 15.3887 4.46896 14.4437 2.91416 15.3887C-1.95113 18.3459 1.41011 20.4677 3.69889 21.1589C4.97407 22.6315 8.13259 25.0899 10.5652 23.1424C10.2514 18.959 13.0502 17.6728 14.4889 17.5525Z" fill="white"/>
<path d="M15.5679 18.7246C15.5679 18.7246 16.2545 15.1182 20.8647 15.7494C25.1807 11.2414 31.2624 14.6674 30.5757 19.4459C34.4993 22.4032 31.3604 25.4265 29.3005 26.5685H15.5679C7.52442 22.331 15.5679 18.7246 15.5679 18.7246Z" fill="white"/>
<ellipse cx="69.5968" cy="17.0879" rx="7.34264" ry="6.74898" fill="white"/>
<path d="M67.5658 8.18499C65.8994 7.65848 63.129 5.28436 65.3787 5.34058e-05C69.5968 3.44634 68.8156 6.74904 67.5658 8.18499Z" fill="white"/>
<path d="M72.7952 8.58196C71.5443 7.44116 70.1746 4.19529 74.7027 0.338134C76.8679 5.12853 74.6004 7.78929 72.7952 8.58196Z" fill="white"/>
<path d="M76.5248 11.2661C76.2244 9.67013 77.1542 6.29517 83.2762 5.56294C82.0211 10.6204 78.4958 11.5814 76.5248 11.2661Z" fill="white"/>
<path d="M79.5141 15.1282C80.2114 13.6408 82.9967 11.2814 88.559 13.7434C84.501 17.3484 80.9772 16.3824 79.5141 15.1282Z" fill="white"/>
<path d="M79.5734 19.8194C80.9241 18.7792 84.5663 17.8235 88.3294 22.3219C82.9409 23.864 80.2664 21.5444 79.5734 19.8194Z" fill="white"/>
<path d="M76.8451 23.8698C78.5632 23.51 82.2789 24.1854 83.3973 29.766C77.8364 28.8807 76.6064 25.6956 76.8451 23.8698Z" fill="white"/>
<path d="M72.6198 26.1514C74.2896 26.6686 77.0757 29.0271 74.8611 34.3239C70.6203 30.9013 71.3795 27.5943 72.6198 26.1514Z" fill="white"/>
<path d="M67.319 25.736C68.4635 26.9674 69.5382 30.3059 64.6803 33.8077C62.9511 28.8699 65.4489 26.3895 67.319 25.736Z" fill="white"/>
<path d="M62.7294 23.4879C63.0275 25.0842 62.093 28.458 55.97 29.183C57.2321 24.1271 60.7588 23.1702 62.7294 23.4879Z" fill="white"/>
<path d="M60.2327 19.0049C59.6768 20.5418 57.122 23.1121 51.3504 21.0979C55.057 17.1862 58.6579 17.8707 60.2327 19.0049Z" fill="white"/>
<path d="M60.5619 14.2277C59.2303 15.2885 55.606 16.3 51.7616 11.86C57.1214 10.2354 59.8376 12.5136 60.5619 14.2277Z" fill="white"/>
<path d="M63.1313 10.2602C61.3892 10.5035 57.7372 9.57994 57.0662 3.93908C62.5416 5.19607 63.5148 8.4554 63.1313 10.2602Z" fill="white"/>
<path d="M47.5088 50.8934H39.999C39.2583 50.8934 38.4559 51.3977 38.1473 51.6498L31.6662 59.2143C29.5402 56.5352 25.8676 51.5765 24.8766 50.8934C24.0536 50.326 23.745 50.326 23.3335 50.326H13.6634C11.1601 52.8475 5.82441 58.2877 4.50763 59.8762C4.67223 61.7673 6.01644 61.7989 6.66797 61.5782L13.4576 56.2831V56.6613V67.5353H14.8979V76.0453C15.8854 77.7095 17.504 76.7387 18.1898 76.0453V67.5353H19.7329V76.0453C21.2143 77.8608 22.6134 76.6757 23.1277 75.8562V67.5353H24.4651V56.6613L30.6375 62.2401H32.3864L39.0731 55.7157V58.8361L33.0036 68.1026H39.999V76.0453C41.2335 77.5582 42.2279 76.6757 42.5708 76.0453V68.2917H44.8341V76.0453C46.0685 77.7851 47.1316 76.6442 47.5088 75.8562L47.303 68.2917H53.8869L48.0231 58.5524L48.2289 55.243C49.7034 56.8504 52.9405 60.3301 54.0927 61.3891C55.5741 61.6917 55.8758 60.3175 55.8415 59.5925C52.5496 55.4321 48.949 50.8934 47.5088 50.8934Z" fill="white"/>
<ellipse cx="18.4984" cy="42.667" rx="7.4069" ry="6.80804" fill="white"/>
<ellipse cx="43.1881" cy="41.7214" rx="8.43563" ry="7.7536" fill="white"/>
<path d="M32.695 50.6097C25.0823 47.9621 31.3576 42.0997 35.0611 42.0997V43.8962C32.5921 46.0143 32.455 49.2544 32.695 50.6097Z" fill="white"/>
<path d="M53.1668 50.4858C60.7795 47.8382 54.5042 41.9757 50.8008 41.9757V43.7723C53.2697 45.8904 53.4069 49.1305 53.1668 50.4858Z" fill="white"/>
</svg>
