<svg width="26" height="26" viewBox="0 0 26 26" fill="none" xmlns="http://www.w3.org/2000/svg">
<path d="M0.290192 12.918C0.290192 13.4403 0.703406 13.756 1.21505 13.756C1.53076 13.756 1.78101 13.6038 1.99876 13.386L12.6193 3.71215C12.7386 3.59236 12.8695 3.54872 13.0107 3.54872C13.1416 3.54872 13.2614 3.59236 13.3914 3.71215L24.0013 13.386C24.2297 13.6038 24.4799 13.756 24.785 13.756C25.2962 13.756 25.7098 13.4403 25.7098 12.918C25.7098 12.5916 25.59 12.385 25.3834 12.1998L21.6181 8.7724V2.34111C21.6181 1.86243 21.3135 1.55786 20.8348 1.55786H19.4095C18.9415 1.55786 18.6151 1.86243 18.6151 2.34111V6.041L14.3056 2.10154C13.9249 1.74265 13.4569 1.569 13 1.569C12.5427 1.569 12.0858 1.74311 11.694 2.102L0.616585 12.1998C0.420656 12.385 0.290192 12.5916 0.290192 12.918ZM3.4023 22.0477C3.4023 23.5604 4.31648 24.442 5.85048 24.442H10.2579V16.7047C10.2579 16.2042 10.595 15.8783 11.0955 15.8783H14.937C15.4375 15.8783 15.7639 16.2042 15.7639 16.7047V24.442H20.1602C21.6942 24.442 22.5977 23.5604 22.5977 22.0477V14.0824L13.3589 5.75779C13.2391 5.64915 13.1087 5.59483 12.9782 5.59483C12.8584 5.59483 12.7386 5.64915 12.6082 5.76893L3.4023 14.1368V22.0477Z" fill="white"/>
</svg>
