<svg width="124" height="137" viewBox="0 0 124 137" fill="none" xmlns="http://www.w3.org/2000/svg">
<path d="M34.2448 23.9613C31.3247 51.9327 24.063 62.6396 20.7971 64.4967C25.254 74.9475 39.1757 77.6883 45.5794 77.7523L56.7218 107.914C55.5691 109.194 54.2243 111.18 54.6086 112.716C54.9127 113.933 62.1009 125.78 62.1009 125.78C62.1009 125.78 69.0169 115.406 69.9774 112.716L69.209 110.219L68.2484 107.914L79.1987 77.7523C82.4006 78.3287 91.8012 77.2144 103.789 68.1468C90.3412 55.0833 92.2623 49.8963 89.9569 23.9613C87.6516 -1.97363 37.8949 -11.0028 34.2448 23.9613Z" fill="black" stroke="black"/>
<path d="M6.38876 98.3082L40.0081 83.7078L36.1659 109.835C38.7914 108.682 44.3114 106.377 45.3872 106.377C46.4631 106.377 48.0128 107.017 48.6531 107.337L60.9482 132.504H62.6772C66.6475 124.499 74.8186 108.26 75.7407 107.337C76.6629 106.415 78.0461 106.313 78.6224 106.377L88.228 109.835L84.9621 83.7078L118.005 98.3082C119.67 99.0126 122.616 101.958 123 109.835C70.938 164.394 0.0491047 117.135 1.00966 109.835C1.7781 103.995 4.91591 99.717 6.38876 98.3082Z" fill="black" stroke="black"/>
</svg>
