<svg width="99" height="65" viewBox="0 0 99 65" fill="none" xmlns="http://www.w3.org/2000/svg">
<path d="M22.7083 29.0006L4.4209 22.228L49.4828 2L94.4436 22.228L75.6005 28.8212" stroke="white" stroke-width="2.64706"/>
<path d="M74.3326 36.9359C74.3328 36.9359 74.3312 36.9386 74.3268 36.944C74.3302 36.9386 74.3323 36.9359 74.3326 36.9359ZM73.0249 36.6467C73.5049 36.8386 73.8408 37.0156 74.0611 37.1636C73.8408 37.3115 73.5049 37.4886 73.0249 37.6805C71.811 38.1658 69.9757 38.6303 67.6117 39.0301C62.9051 39.826 56.352 40.3252 49.0786 40.3252C41.8053 40.3252 35.2522 39.826 30.5456 39.0301C28.1816 38.6303 26.3463 38.1658 25.1324 37.6805C24.6524 37.4886 24.3165 37.3115 24.0962 37.1636C24.3165 37.0156 24.6524 36.8386 25.1324 36.6467C26.3463 36.1613 28.1816 35.6969 30.5456 35.2971C35.2522 34.5012 41.8053 34.002 49.0786 34.002C56.352 34.002 62.9051 34.5012 67.6117 35.2971C69.9757 35.6969 71.811 36.1613 73.0249 36.6467ZM23.8247 36.9359C23.8249 36.9359 23.8271 36.9386 23.8304 36.944C23.8261 36.9386 23.8245 36.9359 23.8247 36.9359ZM23.8247 37.3913C23.8245 37.3913 23.8261 37.3885 23.8304 37.3831C23.8271 37.3886 23.8249 37.3913 23.8247 37.3913ZM74.3268 37.3831C74.3312 37.3885 74.3328 37.3913 74.3326 37.3913C74.3323 37.3913 74.3302 37.3886 74.3268 37.3831Z" stroke="white" stroke-width="2.64706"/>
<path d="M22.8598 37.2296V25.2432C36.5259 21.4506 70.0331 22.3402 75.3983 25.2432V37.2533" stroke="white" stroke-width="2.64706"/>
<line y1="-1.32353" x2="27.1806" y2="-1.32353" transform="matrix(-0.00743435 0.999972 -0.999983 -0.0058602 12.3522 25.1434)" stroke="white" stroke-width="2.64706"/>
<path d="M13.9527 65C10.0694 61.709 4.70036 51.8358 13.9527 51.8358C22.955 51.8358 17.13 61.709 13.9527 65Z" fill="white"/>
</svg>
