<svg width="97" height="58" viewBox="0 0 97 58" fill="none" xmlns="http://www.w3.org/2000/svg">
<path d="M4.44879 33.678H9.37602L46.0631 32.8999L95.9291 41.514C96.5821 41.514 96.4634 42.2921 95.9291 42.2921C79.881 42.5329 46.1937 43.0701 39.8299 43.2924C33.4185 48.6276 36.3867 54.1666 38.6426 56.1303C57.56 55.6301 95.5017 54.6297 95.9291 54.6297C96.1665 54.8965 96.028 55.1855 95.9291 55.2966L37.2772 57.1862C29.0849 54.3889 10.8245 48.3164 3.32087 46.4046C-2.75803 38.0906 1.53994 34.456 4.44879 33.678Z" fill="white" stroke="white" stroke-width="0.111149"/>
<path d="M38.7018 56.0746C32.9078 50.2948 37.0791 45.1449 39.889 43.2924C56.4517 42.996 90.8117 42.4032 95.7508 42.4032C92.9013 47.0715 94.5635 52.4993 95.7508 54.6297C79.7225 55.0002 45.873 55.8079 38.7018 56.0746Z" fill="#E6E7E9"/>
<path d="M46.241 54.6297V44.9596H50.3371V54.6297L48.3781 51.4063L46.241 54.6297Z" fill="#FCBA31"/>
<path d="M5.99225 45.5154C4.56751 41.4251 5.9131 38.0313 6.76398 36.8457C8.64385 37.3459 13.0329 38.4796 15.5499 39.0132C12.9854 42.0809 13.6502 46.2194 14.3033 47.9052C12.5421 47.3309 8.41432 46.049 5.99225 45.5154Z" fill="#FCBA31"/>
<path d="M10.5039 22.7299L14.9562 22.3408L48.0815 18.8952C61.1218 20.229 87.2975 22.8966 87.6775 22.8966C88.0574 22.8966 87.8358 23.5264 87.6775 23.8414C74.9735 25.3419 47.8915 28.5763 41.1952 29.51C37.0991 32.3443 37.8708 39.0689 41.6108 42.1811C57.2236 40.1434 88.5442 36.0679 88.9241 36.0679C89.2565 36.2902 89.1418 36.568 89.0428 36.6792L40.6016 43.4593C34.032 41.5327 18.8743 37.2127 10.8007 35.3454C4.91181 27.2981 8.14914 23.582 10.5039 22.7299Z" fill="white" stroke="white" stroke-width="0.111149"/>
<path d="M12.3442 34.7341C11.062 29.7545 12.2849 26.3608 13.0566 25.2863C14.6001 25.6753 18.5299 26.6757 21.9018 27.5649C19.3848 30.8994 20.1011 35.4751 20.7739 37.3461C18.716 36.6607 14.1489 35.1787 12.3442 34.7341Z" fill="#77DFE6"/>
<path d="M41.67 42.3477C36.0186 37.635 39.236 29.0653 41.3732 29.3987C54.7103 27.8241 82.5838 24.5304 87.3804 23.9524C85.4333 28.265 87.5981 33.7892 88.9239 36.0122L41.67 42.3477Z" fill="#E6E7E9"/>
<path d="M48.5562 30.6214L44.4007 31.066L45.5286 39.6245L47.2501 36.4567L49.7434 39.0688L48.5562 30.6214Z" fill="#77DFE6"/>
<path d="M14.1846 12.8375L37.8709 1.55575C50.278 1.42608 74.7836 1 74.9735 1C75.1635 1 75.211 1.3705 75.211 1.55575C63.5558 6.68718 39.1769 16.2831 34.5465 18.1171C34.1903 18.5061 33.8952 18.7284 33.8341 19.2286C33.0742 25.453 36.4461 28.38 38.227 29.0654L37.6334 29.3988V30.2325C30.9252 27.7501 17.7464 23.1744 15.075 22.2852C10.8007 20.1178 12.5817 15.2272 14.1846 12.8375Z" fill="white" stroke="white"/>
<path d="M79.6631 11.8927L37.5739 29.3988L37.6332 30.2324L38.4643 30.1768C52.1379 24.3229 79.5444 12.5818 79.7818 12.4484C79.9718 12.2706 79.7818 12.0038 79.6631 11.8927Z" fill="white" stroke="white"/>
<path d="M79.307 11.9483C68.3642 16.5054 44.8401 26.2866 38.2863 28.9542C34.0102 26.9163 33.6558 22.1741 33.8934 19.6176C33.8934 18.9507 34.3089 18.3897 34.8432 18.1727C45.4694 13.8564 68.3839 4.55679 74.7953 1.88919C74.7953 9.0028 77.447 9.7438 79.307 11.9483Z" fill="#E6E7E9"/>
<path d="M16.0842 22.0629C14.4695 19.7955 16.0644 15.9497 17.1528 14.3936C17.6673 14.5233 20.2991 15.3606 25.9981 17.0056C23.1011 20.1178 23.6037 23.5079 24.2171 24.7861C22.4362 24.2118 18.3163 22.8188 16.0842 22.0629Z" fill="#FC8D92"/>
<path d="M42.3824 17.2278L38.7018 18.7284V18.8395L42.5605 26.5089L43.1541 23.0076L46.3004 24.7305L42.3824 17.2278Z" fill="#FC8D92"/>
</svg>
