<svg width="97" height="55" viewBox="0 0 97 55" fill="none" xmlns="http://www.w3.org/2000/svg">
<path d="M86.4419 3.2478C69.8575 -2.02152 54.2348 0.285552 48.4965 2.09775C28.0085 -2.60701 13.9456 2.09775 10.4299 3.2478C7.61736 3.2478 6.10601 4.4327 5.70191 5.02516C4.08549 19.6621 0.852661 49.1661 0.852661 50.0862C0.852661 51.0062 2.5499 51.7241 3.39852 51.9681H41.7076L43.8897 55H54.1944L56.4978 51.9681C68.7826 52.0378 93.6915 52.1353 95.0493 51.9681C96.4071 51.8008 96.9082 49.8771 96.989 48.9361L91.8973 5.02516C91.372 4.4327 89.5454 3.2478 86.4419 3.2478Z" fill="white"/>
<path d="M12.1273 43.395L15.0368 6.27976C15.1679 4.60696 42.3138 2.41141 48.4966 6.27976C55.4795 1.93048 74.036 4.46756 82.4414 6.27976C83.29 19.1742 84.8902 44.6496 84.5023 43.395C84.0174 41.8267 56.4979 39.7357 48.4966 43.395C41.8047 39.8821 21.4621 41.9313 12.1273 43.395Z" stroke="#77E29D" stroke-width="3"/>
<line x1="48.53" y1="7.62856" x2="48.53" y2="43.2285" stroke="#77E29D" stroke-opacity="0.5"/>
<path d="M38.3715 14.918C38.3325 15.5299 38.2967 16.1354 38.2641 16.7344C38.2315 17.3333 38.1892 17.9388 38.1371 18.5508L33.9965 18.7656L33.8989 19.9961H36.809L36.5942 23.0234L33.6645 23.1211L33.5668 24.5469H35.9887H37.7075C37.6684 25.263 37.6261 25.9759 37.5805 26.6855C37.5414 27.3887 37.5056 28.0951 37.4731 28.8047L29.0551 29L29.3676 14.918H38.3715Z" fill="#FC8D92"/>
<path d="M52.8325 24.0586C52.8325 24.7943 52.8227 25.5234 52.8032 26.2461C52.7901 26.9622 52.7674 27.6849 52.7348 28.4141L47.1098 28.3164C47.3051 27.1641 47.4744 26.015 47.6176 24.8691C47.7608 23.7168 47.8325 22.5547 47.8325 21.3828C47.8325 21.2982 47.8292 21.1615 47.8227 20.9727C47.8162 20.7839 47.8032 20.5723 47.7836 20.3379C47.7641 20.097 47.7348 19.8529 47.6957 19.6055C47.6632 19.3516 47.6144 19.1204 47.5493 18.9121C47.4907 18.7038 47.4158 18.5345 47.3246 18.4043C47.24 18.2676 47.1358 18.1992 47.0121 18.1992C46.7908 18.1992 46.602 18.2643 46.4457 18.3945C46.296 18.5247 46.169 18.694 46.0649 18.9023C45.9672 19.1042 45.8891 19.332 45.8305 19.5859C45.7719 19.8398 45.7263 20.0938 45.6938 20.3477C45.6677 20.6016 45.6482 20.8424 45.6352 21.0703C45.6287 21.2917 45.6254 21.474 45.6254 21.6172C45.5929 22.7695 45.5668 23.9154 45.5473 25.0547C45.5278 26.1875 45.5017 27.3333 45.4692 28.4922L40.4887 28.707C40.6189 26.4089 40.7426 24.1237 40.8598 21.8516C40.9835 19.5794 41.0812 17.2943 41.1528 14.9961L45.7621 14.7617L45.7231 16.3242C45.9054 16.1029 46.1007 15.8945 46.309 15.6992C46.5239 15.5039 46.7517 15.3379 46.9926 15.2012C47.2335 15.0579 47.4874 14.9473 47.7543 14.8691C48.0278 14.7845 48.3142 14.7422 48.6137 14.7422C49.1671 14.7422 49.6521 14.8333 50.0688 15.0156C50.4855 15.1979 50.8435 15.4453 51.143 15.7578C51.4425 16.0703 51.6931 16.4414 51.895 16.8711C52.0968 17.2943 52.2595 17.7467 52.3832 18.2285C52.5069 18.7103 52.6013 19.2148 52.6664 19.7422C52.7315 20.263 52.7739 20.7773 52.7934 21.2852C52.8194 21.793 52.8325 22.2845 52.8325 22.7598C52.8325 23.235 52.8325 23.668 52.8325 24.0586Z" fill="#77DFE6"/>
<path d="M67.5668 26.8125C67.2608 27.1966 66.8832 27.5319 66.434 27.8184C65.9848 28.1048 65.503 28.3424 64.9887 28.5312C64.4744 28.7201 63.947 28.8633 63.4067 28.9609C62.8663 29.0521 62.352 29.0977 61.8637 29.0977C60.9197 29.0977 60.0506 28.9382 59.2563 28.6191C58.462 28.3001 57.7752 27.8574 57.1957 27.291C56.6228 26.7181 56.1736 26.0378 55.8481 25.25C55.5226 24.4622 55.3598 23.6029 55.3598 22.6719C55.3598 21.9622 55.4412 21.2721 55.6039 20.6016C55.7667 19.931 55.9978 19.3027 56.2973 18.7168C56.6033 18.1309 56.9744 17.5938 57.4106 17.1055C57.8468 16.6172 58.3416 16.1973 58.895 15.8457C59.4483 15.4941 60.0538 15.224 60.7114 15.0352C61.3754 14.8398 62.0786 14.7422 62.8207 14.7422C63.1007 14.7422 63.4002 14.7552 63.7192 14.7812C64.0382 14.8008 64.3539 14.8398 64.6664 14.8984C64.9855 14.9505 65.2947 15.0254 65.5942 15.123C65.8937 15.2207 66.1671 15.3411 66.4145 15.4844L66.1411 19.2148C65.7765 19.0781 65.3989 18.987 65.0082 18.9414C64.6241 18.8893 64.2465 18.8633 63.8754 18.8633C63.3546 18.8633 62.8663 18.9349 62.4106 19.0781C61.9614 19.2148 61.5675 19.4199 61.2289 19.6934C60.8969 19.9668 60.6332 20.3086 60.4379 20.7188C60.2426 21.1289 60.145 21.6042 60.145 22.1445C60.145 22.4831 60.1905 22.8118 60.2817 23.1309C60.3728 23.4434 60.5095 23.7233 60.6918 23.9707C60.8806 24.2116 61.1118 24.4069 61.3852 24.5566C61.6651 24.7064 61.9874 24.7812 62.352 24.7812C62.5994 24.7812 62.8533 24.7487 63.1137 24.6836C63.3806 24.6185 63.6085 24.5078 63.7973 24.3516L63.8364 23.5898L61.4926 23.5508L61.6098 20.6211C62.5799 20.5885 63.5499 20.5625 64.52 20.543C65.49 20.5169 66.4666 20.4844 67.4496 20.4453L67.5668 26.8125Z" fill="#FCBA31"/>
</svg>
