<svg width="26" height="26" viewBox="0 0 26 26" fill="none" xmlns="http://www.w3.org/2000/svg">
<path d="M13 4.70218C9.46562 4.6971 5.93633 5.29124 2.40906 6.49984C2.40906 6.49984 1.90785 7.64749 1.49601 8.5971C1.40914 8.79463 1.34952 9.00305 1.31879 9.21663C3.78422 8.28226 6.25117 7.64242 8.71406 7.28695C8.94258 6.84007 9.40976 6.54554 9.92773 6.54554H10.8062C11.2074 6.54554 11.573 6.7182 11.8269 6.99749C12.609 6.96702 13.391 6.96195 14.1832 6.99242C14.432 6.71312 14.7977 6.54554 15.1887 6.54554H16.0672C16.5801 6.54554 17.0371 6.82992 17.2707 7.26156C19.7437 7.59671 22.2066 8.24671 24.6797 9.20648C24.6441 9.00335 24.5883 8.79007 24.5019 8.5971C24.0906 7.64749 23.5879 6.49984 23.5879 6.49984C20.0586 5.31156 16.5293 4.70574 13 4.70218ZM9.92773 7.42406C9.68906 7.42406 9.48086 7.59671 9.44023 7.83538L9.1 9.88695C8.48554 9.99866 7.88632 10.1409 7.30742 10.3135C6.80976 10.4659 6.41367 10.8416 6.23086 11.3241C5.53008 13.203 3.75679 17.9561 3.75679 17.9561H22.2422C22.2422 17.9561 20.475 13.208 19.7691 11.3241C19.5914 10.8416 19.1902 10.4608 18.6926 10.3135C18.1137 10.1409 17.5144 9.99866 16.9 9.88695L16.5547 7.83538C16.5141 7.59671 16.3109 7.42406 16.0672 7.42406H15.1887C14.9551 7.42406 14.7469 7.58656 14.7062 7.82015L14.5945 8.35843H11.4004L11.2887 7.82015C11.248 7.58656 11.0449 7.42406 10.8062 7.42406H9.92773ZM18.2457 8.30257L18.1086 9.2471C18.393 9.3182 18.6723 9.38929 18.9414 9.47562C19.6523 9.79046 20.2465 10.2729 20.5207 10.8569L23.8113 11.644C24.1363 11.1463 24.5019 10.6944 24.6391 10.1307C22.5062 9.28773 20.3785 8.67327 18.2457 8.30257ZM7.75937 8.32796C5.62656 8.70882 3.49324 9.31312 1.35992 10.1358C1.5148 10.7299 1.84742 11.1311 2.18816 11.644L5.47929 10.8569C5.7789 10.1967 6.35273 9.6889 7.05351 9.47562C7.33281 9.39437 7.61211 9.3182 7.8914 9.2471L7.75937 8.32796ZM13 10.019C15.2699 10.019 17.1133 11.5881 17.1133 13.5229C17.1133 15.4576 15.2699 17.0217 13 17.0217C10.7301 17.0217 8.88164 15.4576 8.88164 13.5229C8.88164 11.5881 10.7301 10.019 13 10.019ZM13 10.9127C11.4715 10.9127 10.2324 11.969 10.2324 13.269C10.2324 14.569 11.4715 15.6252 13 15.6252C14.5285 15.6252 15.7625 14.569 15.7625 13.269C15.7625 11.969 14.5285 10.9127 13 10.9127ZM3.75629 19.119L4.86129 21.2975H21.1352L22.2371 19.119H3.75629Z" fill="white"/>
</svg>
